<svg id="Layer_1" data-name="Layer 1" xmlns="http://www.w3.org/2000/svg" xmlns:xlink="http://www.w3.org/1999/xlink" viewBox="0 0 1414.85 1039.26"><defs><style>.cls-1{fill:none;}.cls-2{opacity:0.7;}.cls-3{fill:#7f8184;}.cls-4{fill:#083e4e;}.cls-5{fill:#136882;}.cls-6{opacity:0.5;}.cls-7{clip-path:url(#clip-path);}.cls-8{fill:#808184;}.cls-9{fill:#214050;}.cls-10{fill:#416880;}</style><clipPath id="clip-path" transform="translate(725.21 438.54)"><rect class="cls-1" x="56.7" y="-33.7" width="678.6" height="634.66"/></clipPath></defs><title>logo50</title><g class="cls-2"><polygon class="cls-3" points="412.85 120.19 504.1 34.89 541.43 0 504.1 0 0 0 0 120.19 412.85 120.19"/><polygon class="cls-4" points="412.85 120.19 504.1 34.89 541.43 0 632.68 0 632.68 84.74 594.76 120.19 504.1 204.93 230.79 460.32 139.84 375.38 412.85 120.19"/><polygon class="cls-5" points="632.68 84.74 632.68 120.19 632.68 591.38 504.1 591.38 504.1 204.93 594.76 120.19 632.68 84.74"/></g><g id="_100_opacity" data-name="100% opacity" class="cls-6"><g class="cls-7"><polygon class="cls-8" points="1286.19 447.88 782.17 447.88 782.17 568.07 1195.02 568.07 1286.19 482.84 1323.6 447.88 1286.19 447.88"/><polygon class="cls-9" points="1195.02 568.07 922.01 823.26 1012.89 908.2 1286.19 652.81 1376.85 568.07 1414.85 532.55 1414.85 447.88 1323.6 447.88 1286.19 482.84 1195.02 568.07"/><polygon class="cls-10" points="1376.85 568.07 1286.19 652.81 1286.19 1039.26 1414.85 1039.26 1414.85 568.07 1414.85 532.55 1376.85 568.07"/></g></g></svg>